<?xml version="1.0" encoding="UTF-8" ?>
<!DOCTYPE svg PUBLIC "-//W3C//DTD SVG 1.1//EN" "http://www.w3.org/Graphics/SVG/1.1/DTD/svg11.dtd">
<svg width="38pt" height="38pt" viewBox="0 0 38 38" version="1.1" xmlns="http://www.w3.org/2000/svg">

<rect rx="5" height="37.736341" width="37.500008" y="0.129206" x="0.249996" stroke-width="null" fill="#d62832"/>
  <path  d="m18.950001,3.78c2.529999,-1.03 2.98,2.47 4.15,3.91c3.58,5.039999 7.549999,10.039999 12.780001,13.46c-0.690002,1.32 -1.560001,2.51 -2.549999,3.620001c-1.080002,-0.85 -2.160002,-1.690001 -3.230001,-2.530001c0.02,2.380001 -0.040001,4.77 -0.120001,7.16c1.08,0.52 2.139999,1.1 3.220001,1.630001c-0.810001,0.949999 -1.490002,2.870001 -3.120001,2.26c-7.039999,-0.84 -14.41,-3.200001 -21.38,-0.780003c-1.69,0.810001 -2.28,-1.339998 -2.88,-2.419998c0.52,-0.299999 1.55,-0.9 2.06,-1.200001c0.22,-2.769999 0.349999,-5.539999 0.46,-8.309999c-1.61,0.92 -3.16,2.18 -5.08,2.33c-1.8,-1.299999 -0.83,-3.889999 0.94,-4.66c6.08,-3.5 10.27,-9.25 14.750001,-14.47z" fill="#ffffff"/>
  <path  d="m19.469999,8.73c2.210001,3.72 4.380001,7.48 6.91,11.01c0.02,3.08 0.030001,6.16 0.02,9.24c-1.16,-0.25 -2.32,-0.51 -3.48,-0.779999c0.450001,-3.700001 0.030001,-7.42 -0.85,-11.030001c-1.9,0.07 -3.809999,0.120001 -5.709999,0.200001c-1.630001,3.279999 -0.920001,6.939999 -0.56,10.42c-1.3,-0.030001 -2.6,-0.02 -3.900001,0.019999c0.23,-3.23 0.280001,-6.48 0.27,-9.719999c2.66,-2.940001 5.030001,-6.12 7.299999,-9.360001z" fill="#d62832"/>
  <path  d="m17.049999,19.57c0.950001,-0.02 1.91,-0.039999 2.870001,-0.059999c-0.07,2.66 -0.08,5.309999 -0.02,7.959999c-0.549999,0.110001 -1.66,0.320002 -2.219999,0.43c-0.190001,-2.779999 -0.41,-5.549999 -0.630001,-8.33z" fill="#d62832"/>

</svg>
