<?xml version="1.0"?>
<svg width="48" height="48" xmlns="http://www.w3.org/2000/svg">
 <metadata id="metadata46">image/svg+xml</metadata>
 <g>
  <path fill="#2c2c2b" id="path28" d="m0.000174,24.138981l24.009355,-24.009294l24.009354,24.009294l-24.009354,24.00935l-24.009355,-24.00935z"/>
  <path fill="#ffe300" id="path30" d="m3.000813,23.377028l20.246753,-20.246708c0.4191,-0.419095 1.104826,-0.419095 1.523924,0l20.246744,20.246708c0.419102,0.41909 0.419102,1.104904 0,1.523916l-20.246744,20.246727c-0.419098,0.41909 -1.104824,0.41909 -1.523924,0l-20.246753,-20.246727c-0.419104,-0.419012 -0.419104,-1.104826 0,-1.523916z"/>
  <path fill="#2c2c2b" stroke="#2c2c2b" stroke-width="0.216" id="path34" d="m17.260664,17.864435c0.65337,-0.115191 1.300478,0.438911 1.440569,1.233484c0.140093,0.794647 -0.278492,1.536621 -0.93178,1.651808c-0.653288,0.115194 -1.300482,-0.438829 -1.440573,-1.23348c-0.140093,-0.794567 0.27849,-1.536533 0.931784,-1.651812z"/>
  <path fill="#2c2c2b" stroke="#2c2c2b" stroke-width="0.216" id="path36" d="m15.741574,22.801239c0.837762,-0.848013 1.989001,-1.574734 3.353768,-2.225485l2.058455,-4.926637l0.494898,-1.545428l0.890026,1.383738l-2.307978,6.491299c0.037264,0.778469 0.074532,1.55703 0.111801,2.335505l0.576464,1.15716c0.602552,-0.734682 1.204853,-1.469444 1.807156,-2.204128c0.981667,-1.0895 1.286669,-0.230045 1.745827,0.570446l1.976974,3.072052l0.101639,1.133949l-0.920429,0.264687l-2.252251,-3.347652l-2.134346,2.809731l2.846586,2.28747l2.829224,2.219389l0.073097,0.822762c-0.279341,0.212166 -0.558594,0.424427 -0.837854,0.636517l-2.931705,-2.400547l-3.812334,-2.600691l-0.302206,2.309666c-0.444674,0.052422 -1.709576,0.2369 -1.687727,-0.618481c0.01313,-0.513189 -0.123831,-1.35231 0.202095,-1.555841l1.113123,-0.695042c-1.056204,-2.349817 -0.974894,-2.338627 -1.811722,-3.740492l-0.595444,2.463991l0.319824,3.125999c0.100121,0.977678 -1.086185,1.024345 -1.164363,0.06403c-0.107568,-1.173088 -0.215139,-2.346338 -0.322706,-3.51951l0.580109,-3.768454l0,0z"/>
  <path fill="#2c2c2b" id="path38" d="m23.813028,3.831837c0.675053,-0.187519 1.050104,0.675069 1.500114,1.012607c6.188158,6.188128 12.468298,12.321307 18.601885,18.601871c0.211147,0.216322 0.197861,0.931868 -0.034557,1.17902c-4.578846,4.867249 -9.602379,9.514273 -14.383249,14.260916c-0.054035,-1.01318 0.037781,-2.02652 -0.016432,-3.039272l-2.464424,-1.244404l-1.571772,-18.491344l-3.911512,-0.926946c0.233009,-2.791101 -1.030796,-5.471332 -0.682934,-8.352129c1.012669,-0.937623 1.912775,-2.062722 2.962881,-3.000317l0,0z"/>
  <path fill="none" stroke="#2c2c2b" stroke-linecap="square" id="path40" d="m21.033014,29.683584c2.39488,8.953642 7.77441,5.332743 7.802872,6.840139l0.046164,2.443241"/>
 </g>
</svg>