<?xml version="1.0" encoding="UTF-8" ?>
<!DOCTYPE svg PUBLIC "-//W3C//DTD SVG 1.1//EN" "http://www.w3.org/Graphics/SVG/1.1/DTD/svg11.dtd">
<svg width="48pt" height="48pt" viewBox="0 0 48 48" version="1.1" xmlns="http://www.w3.org/2000/svg">
<path fill="#000000" d=" M 0.00 0.00 L 1.25 0.00 C 16.37 2.09 32.00 3.39 47.03 0.00 L 48.00 0.00 L 48.00 48.00 L 46.01 48.00 C 46.00 41.66 46.00 35.32 45.99 28.98 C 31.33 29.03 16.67 29.04 2.01 28.98 C 2.00 35.32 1.99 41.66 1.99 48.00 L 0.00 48.00 L 0.00 0.00 Z" />
<path fill="#ffffff" d=" M 1.25 0.00 L 47.03 0.00 C 32.00 3.39 16.37 2.09 1.25 0.00 Z" />
<path fill="#ffffff" d=" M 6.00 4.00 C 7.33 4.00 8.67 4.00 10.00 4.00 C 10.00 5.33 10.00 6.67 10.00 8.00 C 8.67 8.00 7.33 8.00 6.00 8.00 C 6.00 6.67 6.00 5.33 6.00 4.00 Z" />
<path fill="#ffffff" d=" M 14.00 4.00 C 15.33 4.00 16.67 4.00 18.00 4.00 C 18.00 5.33 18.00 6.67 18.00 8.00 C 16.67 8.00 15.33 8.00 14.00 8.00 C 14.00 6.67 14.00 5.33 14.00 4.00 Z" />
<path fill="#ffffff" d=" M 22.00 4.00 C 23.33 4.00 24.67 4.00 26.00 4.00 C 26.00 5.33 26.00 6.67 26.00 8.00 C 24.67 8.00 23.33 8.00 22.00 8.00 C 22.00 6.67 22.00 5.33 22.00 4.00 Z" />
<path fill="#ffffff" d=" M 30.00 4.00 C 31.33 4.00 32.67 4.00 34.00 4.00 C 34.00 5.33 34.00 6.67 34.00 8.00 C 32.67 8.00 31.33 8.00 30.00 8.00 C 30.00 6.67 30.00 5.33 30.00 4.00 Z" />
<path fill="#ffffff" d=" M 38.00 4.00 C 39.33 4.00 40.67 4.00 42.00 4.00 C 42.00 5.33 42.00 6.67 42.00 8.00 C 40.67 8.00 39.33 8.00 38.00 8.00 C 38.00 6.67 38.00 5.33 38.00 4.00 Z" />
<path fill="#ffffff" d=" M 2.00 8.00 C 3.33 8.00 4.67 8.00 6.00 8.00 C 6.00 9.33 6.00 10.67 6.00 12.00 C 4.67 12.00 3.33 12.00 2.00 12.00 C 2.00 10.67 2.00 9.33 2.00 8.00 Z" />
<path fill="#000000" d=" M 6.00 8.00 C 7.33 8.00 8.67 8.00 10.00 8.00 C 10.00 9.33 10.00 10.67 10.00 12.00 C 8.67 12.00 7.33 12.00 6.00 12.00 C 6.00 10.67 6.00 9.33 6.00 8.00 Z" />
<path fill="#ffffff" d=" M 10.00 8.00 C 11.33 8.00 12.67 8.00 14.00 8.00 C 14.00 9.33 14.00 10.67 14.00 12.00 C 12.67 12.00 11.33 12.00 10.00 12.00 C 10.00 10.67 10.00 9.33 10.00 8.00 Z" />
<path fill="#000000" d=" M 14.00 8.00 C 15.33 8.00 16.67 8.00 18.00 8.00 C 18.00 9.33 18.00 10.67 18.00 12.00 C 16.67 12.00 15.33 12.00 14.00 12.00 C 14.00 10.67 14.00 9.33 14.00 8.00 Z" />
<path fill="#ffffff" d=" M 18.00 8.00 C 19.33 8.00 20.67 8.00 22.00 8.00 C 22.00 9.33 22.00 10.67 22.00 12.00 C 20.67 12.00 19.33 12.00 18.00 12.00 C 18.00 10.67 18.00 9.33 18.00 8.00 Z" />
<path fill="#000000" d=" M 22.00 8.00 C 23.33 8.00 24.67 8.00 26.00 8.00 C 26.00 9.33 26.00 10.67 26.00 12.00 C 24.67 12.00 23.33 12.00 22.00 12.00 C 22.00 10.67 22.00 9.33 22.00 8.00 Z" />
<path fill="#ffffff" d=" M 26.00 8.00 C 27.33 8.00 28.67 8.00 30.00 8.00 C 30.00 9.33 30.00 10.67 30.00 12.00 C 28.67 12.00 27.33 12.00 26.00 12.00 C 26.00 10.67 26.00 9.33 26.00 8.00 Z" />
<path fill="#000000" d=" M 30.00 8.00 C 31.33 8.00 32.67 8.00 34.00 8.00 C 34.00 9.33 34.00 10.67 34.00 12.00 C 32.67 12.00 31.33 12.00 30.00 12.00 C 30.00 10.67 30.00 9.33 30.00 8.00 Z" />
<path fill="#ffffff" d=" M 34.00 8.00 C 35.33 8.00 36.67 8.00 38.00 8.00 C 38.00 9.33 38.00 10.67 38.00 12.00 C 36.67 12.00 35.33 12.00 34.00 12.00 C 34.00 10.67 34.00 9.33 34.00 8.00 Z" />
<path fill="#000000" d=" M 38.00 8.00 C 39.33 8.00 40.67 8.00 42.00 8.00 C 42.00 9.33 42.00 10.67 42.00 12.00 C 40.67 12.00 39.33 12.00 38.00 12.00 C 38.00 10.67 38.00 9.33 38.00 8.00 Z" />
<path fill="#ffffff" d=" M 42.00 8.00 C 43.33 8.00 44.67 8.00 46.00 8.00 C 46.00 9.33 46.00 10.67 46.00 12.00 C 44.67 12.00 43.33 12.00 42.00 12.00 C 42.00 10.67 42.00 9.33 42.00 8.00 Z" />
<path fill="#ffffff" d=" M 6.00 12.00 C 7.33 12.00 8.67 12.00 10.00 12.00 C 10.00 13.33 10.00 14.67 10.00 16.00 C 8.67 16.00 7.33 16.00 6.00 16.00 C 6.00 14.67 6.00 13.33 6.00 12.00 Z" />
<path fill="#000000" d=" M 10.00 12.00 C 11.33 12.00 12.67 12.00 14.00 12.00 C 14.00 13.33 14.00 14.67 14.00 16.00 C 12.67 16.00 11.33 16.00 10.00 16.00 C 10.00 14.67 10.00 13.33 10.00 12.00 Z" />
<path fill="#ffffff" d=" M 14.00 12.00 C 15.33 12.00 16.67 12.00 18.00 12.00 C 18.00 13.33 18.00 14.67 18.00 16.00 C 16.67 16.00 15.33 16.00 14.00 16.00 C 14.00 14.67 14.00 13.33 14.00 12.00 Z" />
<path fill="#000000" d=" M 18.00 12.00 C 19.33 12.00 20.67 12.00 22.00 12.00 C 22.00 13.33 22.00 14.67 22.00 16.00 C 20.67 16.00 19.33 16.00 18.00 16.00 C 18.00 14.67 18.00 13.33 18.00 12.00 Z" />
<path fill="#ffffff" d=" M 22.00 12.00 C 23.33 12.00 24.67 12.00 26.00 12.00 C 26.00 13.33 26.00 14.67 26.00 16.00 C 24.67 16.00 23.33 16.00 22.00 16.00 C 22.00 14.67 22.00 13.33 22.00 12.00 Z" />
<path fill="#000000" d=" M 26.00 12.00 C 27.33 12.00 28.67 12.00 30.00 12.00 C 30.00 13.33 30.00 14.67 30.00 16.00 C 28.67 16.00 27.33 16.00 26.00 16.00 C 26.00 14.67 26.00 13.33 26.00 12.00 Z" />
<path fill="#ffffff" d=" M 30.00 12.00 C 31.33 12.00 32.67 12.00 34.00 12.00 C 34.00 13.33 34.00 14.67 34.00 16.00 C 32.67 16.00 31.33 16.00 30.00 16.00 C 30.00 14.67 30.00 13.33 30.00 12.00 Z" />
<path fill="#000000" d=" M 34.00 12.00 C 35.33 12.00 36.67 12.00 38.00 12.00 C 38.00 13.33 38.00 14.67 38.00 16.00 C 36.67 16.00 35.33 16.00 34.00 16.00 C 34.00 14.67 34.00 13.33 34.00 12.00 Z" />
<path fill="#ffffff" d=" M 38.00 12.00 C 39.33 12.00 40.67 12.00 42.00 12.00 C 42.00 13.33 42.00 14.67 42.00 16.00 C 40.67 16.00 39.33 16.00 38.00 16.00 C 38.00 14.67 38.00 13.33 38.00 12.00 Z" />
<path fill="#ffffff" d=" M 2.00 16.00 C 3.33 16.00 4.67 16.00 6.00 16.00 C 6.00 17.33 6.00 18.67 6.00 20.00 C 4.67 20.00 3.33 20.00 2.00 20.00 C 2.00 18.67 2.00 17.33 2.00 16.00 Z" />
<path fill="#000000" d=" M 6.00 16.00 C 7.33 16.00 8.67 16.00 10.00 16.00 C 10.00 17.33 10.00 18.67 10.00 20.00 C 8.67 20.00 7.33 20.00 6.00 20.00 C 6.00 18.67 6.00 17.33 6.00 16.00 Z" />
<path fill="#ffffff" d=" M 10.00 16.00 C 11.33 16.00 12.67 16.00 14.00 16.00 C 14.00 17.33 14.00 18.67 14.00 20.00 C 12.67 20.00 11.33 20.00 10.00 20.00 C 10.00 18.67 10.00 17.33 10.00 16.00 Z" />
<path fill="#000000" d=" M 14.00 16.00 C 15.33 16.00 16.67 16.00 18.00 16.00 C 18.00 17.33 18.00 18.67 18.00 20.00 C 16.67 20.00 15.33 20.00 14.00 20.00 C 14.00 18.67 14.00 17.33 14.00 16.00 Z" />
<path fill="#ffffff" d=" M 18.00 16.00 C 19.33 16.00 20.67 16.00 22.00 16.00 C 22.00 17.33 22.00 18.67 22.00 20.00 C 20.67 20.00 19.33 20.00 18.00 20.00 C 18.00 18.67 18.00 17.33 18.00 16.00 Z" />
<path fill="#000000" d=" M 22.00 16.00 C 23.33 16.00 24.67 16.00 26.00 16.00 C 26.00 17.33 26.00 18.67 26.00 20.00 C 24.67 20.00 23.33 20.00 22.00 20.00 C 22.00 18.67 22.00 17.33 22.00 16.00 Z" />
<path fill="#ffffff" d=" M 26.00 16.00 C 27.33 16.00 28.67 16.00 30.00 16.00 C 30.00 17.33 30.00 18.67 30.00 20.00 C 28.67 20.00 27.33 20.00 26.00 20.00 C 26.00 18.67 26.00 17.33 26.00 16.00 Z" />
<path fill="#000000" d=" M 30.00 16.00 C 31.33 16.00 32.67 16.00 34.00 16.00 C 34.00 17.33 34.00 18.67 34.00 20.00 C 32.67 20.00 31.33 20.00 30.00 20.00 C 30.00 18.67 30.00 17.33 30.00 16.00 Z" />
<path fill="#ffffff" d=" M 34.00 16.00 C 35.33 16.00 36.67 16.00 38.00 16.00 C 38.00 17.33 38.00 18.67 38.00 20.00 C 36.67 20.00 35.33 20.00 34.00 20.00 C 34.00 18.67 34.00 17.33 34.00 16.00 Z" />
<path fill="#000000" d=" M 38.00 16.00 C 39.33 16.00 40.67 16.00 42.00 16.00 C 42.00 17.33 42.00 18.67 42.00 20.00 C 40.67 20.00 39.33 20.00 38.00 20.00 C 38.00 18.67 38.00 17.33 38.00 16.00 Z" />
<path fill="#ffffff" d=" M 42.00 16.00 C 43.33 16.00 44.67 16.00 46.00 16.00 C 46.00 17.33 46.00 18.67 46.00 20.00 C 44.67 20.00 43.33 20.00 42.00 20.00 C 42.00 18.67 42.00 17.33 42.00 16.00 Z" />
<path fill="#ffffff" d=" M 6.00 20.00 C 7.33 20.00 8.67 20.00 10.00 20.00 C 10.00 21.33 10.00 22.67 10.00 24.00 C 8.67 24.00 7.33 24.00 6.00 24.00 C 6.00 22.67 6.00 21.33 6.00 20.00 Z" />
<path fill="#000000" d=" M 10.00 20.00 C 11.33 20.00 12.67 20.00 14.00 20.00 C 14.00 21.33 14.00 22.67 14.00 24.00 C 12.67 24.00 11.33 24.00 10.00 24.00 C 10.00 22.67 10.00 21.33 10.00 20.00 Z" />
<path fill="#ffffff" d=" M 14.00 20.00 C 15.33 20.00 16.67 20.00 18.00 20.00 C 18.00 21.33 18.00 22.67 18.00 24.00 C 16.67 24.00 15.33 24.00 14.00 24.00 C 14.00 22.67 14.00 21.33 14.00 20.00 Z" />
<path fill="#000000" d=" M 18.00 20.00 C 19.33 20.00 20.67 20.00 22.00 20.00 C 22.00 21.33 22.00 22.67 22.00 24.00 C 20.67 24.00 19.33 24.00 18.00 24.00 C 18.00 22.67 18.00 21.33 18.00 20.00 Z" />
<path fill="#ffffff" d=" M 22.00 20.00 C 23.33 20.00 24.67 20.00 26.00 20.00 C 26.00 21.33 26.00 22.67 26.00 24.00 C 24.67 24.00 23.33 24.00 22.00 24.00 C 22.00 22.67 22.00 21.33 22.00 20.00 Z" />
<path fill="#000000" d=" M 26.00 20.00 C 27.33 20.00 28.67 20.00 30.00 20.00 C 30.00 21.33 30.00 22.67 30.00 24.00 C 28.67 24.00 27.33 24.00 26.00 24.00 C 26.00 22.67 26.00 21.33 26.00 20.00 Z" />
<path fill="#ffffff" d=" M 30.00 20.00 C 31.33 20.00 32.67 20.00 34.00 20.00 C 34.00 21.33 34.00 22.67 34.00 24.00 C 32.67 24.00 31.33 24.00 30.00 24.00 C 30.00 22.67 30.00 21.33 30.00 20.00 Z" />
<path fill="#000000" d=" M 34.00 20.00 C 35.33 20.00 36.67 20.00 38.00 20.00 C 38.00 21.33 38.00 22.67 38.00 24.00 C 36.67 24.00 35.33 24.00 34.00 24.00 C 34.00 22.67 34.00 21.33 34.00 20.00 Z" />
<path fill="#ffffff" d=" M 38.00 20.00 C 39.33 20.00 40.67 20.00 42.00 20.00 C 42.00 21.33 42.00 22.67 42.00 24.00 C 40.67 24.00 39.33 24.00 38.00 24.00 C 38.00 22.67 38.00 21.33 38.00 20.00 Z" />
<path fill="#ffffff" d=" M 2.00 24.00 C 3.33 24.00 4.67 24.00 6.00 24.00 C 6.00 24.75 6.00 26.25 6.00 27.00 C 4.67 27.00 3.33 27.00 2.00 27.00 C 2.00 26.25 2.00 24.75 2.00 24.00 Z" />
<path fill="#ffffff" d=" M 10.00 24.00 C 11.33 24.00 12.67 24.00 14.00 24.00 C 14.00 24.75 14.00 26.25 14.00 27.00 C 12.67 27.00 11.33 27.00 10.00 27.00 C 10.00 26.25 10.00 24.75 10.00 24.00 Z" />
<path fill="#ffffff" d=" M 18.00 24.00 C 19.33 24.00 20.67 24.00 22.00 24.00 C 22.00 24.75 22.00 26.25 22.00 27.00 C 20.67 27.00 19.33 27.00 18.00 27.00 C 18.00 26.25 18.00 24.75 18.00 24.00 Z" />
<path fill="#ffffff" d=" M 26.00 24.00 C 27.33 24.00 28.67 24.00 30.00 24.00 C 30.00 24.75 30.00 26.25 30.00 27.00 C 28.67 27.00 27.33 27.00 26.00 27.00 C 26.00 26.25 26.00 24.75 26.00 24.00 Z" />
<path fill="#ffffff" d=" M 34.00 24.00 C 35.33 24.00 36.67 24.00 38.00 24.00 C 38.00 24.75 38.00 26.25 38.00 27.00 C 36.67 27.00 35.33 27.00 34.00 27.00 C 34.00 26.25 34.00 24.75 34.00 24.00 Z" />
<path fill="#ffffff" d=" M 42.00 24.00 C 43.33 24.00 44.67 24.00 46.00 24.00 C 46.00 24.75 46.00 26.25 46.00 27.00 C 44.67 27.00 43.33 27.00 42.00 27.00 C 42.00 26.25 42.00 24.75 42.00 24.00 Z" />
</svg>
