<?xml version="1.0" encoding="UTF-8" ?>
<!DOCTYPE svg PUBLIC "-//W3C//DTD SVG 1.1//EN" "http://www.w3.org/Graphics/SVG/1.1/DTD/svg11.dtd">
<svg width="38pt" height="38pt" viewBox="0 0 38 38" version="1.1" xmlns="http://www.w3.org/2000/svg">
  <rect rx="5" id="svg_10" height="37.736341" width="37.500008" y="0.129205" x="0.249996" fill-opacity="null" stroke-opacity="null" stroke-width="null" stroke="null" fill="#293a75"/>
  <path d="m9.55,4.8c0.3,-0.25 0.88,-0.75 1.17,-1c5.72,0.27 12.089999,-1.08 17.19,2.19c3.98,3.02 3.65,8.76 2.110001,12.969999c-2.73,5.120001 -9.280001,5.740002 -14.43,5.17c-0.16,3.110001 -0.07,6.240002 -0.03,9.35c-1.76,1.389999 -3.98,0.16 -5.97,0.260002c-0.110001,-9.650002 -0.04,-19.290002 -0.04,-28.940001z" fill="#ffffff"/>
  <path d="m15.58,7.09c3.16,-0.03 7.51,-0.16 8.84,3.45c0.67,2.96 0.870001,6.98 -1.879999,8.990001c-1.900002,1.629999 -4.630001,1.219999 -6.950001,1.4c-0.14,-4.6 -0.12,-9.23 -0.01,-13.84z" fill="#293a75"/>
</svg>
