<?xml version="1.0" encoding="UTF-8" ?>
<!DOCTYPE svg PUBLIC "-//W3C//DTD SVG 1.1//EN" "http://www.w3.org/Graphics/SVG/1.1/DTD/svg11.dtd">
<svg width="774pt" height="1024pt" viewBox="0 0 774 1024" version="1.1" xmlns="http://www.w3.org/2000/svg">
<path fill="#ffffff" d=" M 0.00 0.00 L 774.00 0.00 L 774.00 1024.00 L 0.00 1024.00 L 0.00 0.00 Z" />
<path fill="#9b9b9b" d=" M 99.43 7.27 C 106.04 6.25 111.42 10.97 116.35 14.61 C 118.75 16.64 122.23 18.99 121.63 22.61 C 120.27 30.02 114.06 34.98 108.98 39.97 C 104.16 44.47 98.28 49.30 91.31 48.90 C 87.84 47.18 85.44 43.98 82.43 41.62 C 77.45 37.30 70.93 33.89 68.63 27.29 C 66.77 22.25 70.93 17.47 74.92 14.92 C 82.29 10.39 90.98 8.56 99.43 7.27 Z" />
<path fill="#9b9b9b" d=" M 227.47 128.12 C 236.00 126.30 243.56 132.35 248.05 139.00 C 251.44 143.90 251.33 150.11 251.81 155.80 C 251.98 160.67 252.83 165.68 251.45 170.45 C 249.86 175.09 245.55 177.94 242.94 181.93 C 241.69 183.41 242.78 185.68 244.26 186.56 C 248.52 189.34 254.46 189.94 257.24 194.67 C 261.25 201.36 264.52 209.10 263.62 217.06 C 263.30 220.97 260.76 224.44 257.34 226.26 C 251.51 229.41 244.95 230.74 238.69 232.75 C 230.76 235.27 222.55 238.24 214.09 236.96 C 203.49 235.24 193.04 232.64 182.48 230.72 C 177.48 229.79 172.23 230.16 167.42 228.38 C 161.82 225.67 157.71 220.52 151.76 218.39 C 148.91 216.89 144.39 216.35 143.70 212.58 C 142.65 205.43 143.46 198.16 143.25 190.96 C 143.19 179.20 144.46 166.03 153.30 157.32 C 161.42 149.79 173.11 149.95 183.21 147.17 C 188.37 146.11 189.82 140.42 193.00 136.97 C 196.23 132.68 201.97 132.30 206.82 131.39 C 213.66 130.05 220.52 128.77 227.47 128.12 Z" />
<path fill="#9b9b9b" d=" M 474.32 132.26 C 486.53 131.88 498.56 136.47 510.79 134.64 C 514.80 134.08 518.73 132.56 522.83 132.87 C 525.55 133.17 526.95 136.13 526.54 138.62 C 525.87 145.54 521.27 151.07 517.35 156.48 C 513.22 161.78 515.32 169.56 510.68 174.61 C 505.17 180.86 497.27 185.32 488.91 186.03 C 485.33 186.49 483.06 183.29 481.12 180.84 C 478.15 176.82 474.94 173.01 471.83 169.11 C 468.14 164.58 467.29 158.62 465.79 153.15 C 464.65 148.10 463.02 142.50 465.43 137.56 C 466.92 134.09 470.76 132.50 474.32 132.26 Z" />
<path fill="#9b9b9b" d=" M 145.50 226.68 C 151.78 224.79 158.06 227.71 163.69 230.25 C 172.48 233.89 180.91 238.79 190.42 240.35 C 200.25 241.90 209.95 244.62 219.97 244.54 C 226.65 244.93 234.08 244.10 239.87 248.11 C 247.13 253.60 249.19 263.88 247.23 272.39 C 244.90 279.57 239.17 284.84 234.86 290.83 C 229.20 298.56 224.38 306.89 218.22 314.26 C 214.55 318.57 211.83 323.56 209.74 328.80 C 206.99 335.34 203.51 341.58 201.43 348.40 C 198.64 357.30 195.36 366.22 189.94 373.89 C 185.82 379.78 182.79 386.51 177.61 391.59 C 173.12 396.02 167.87 399.71 162.08 402.23 C 152.95 406.30 142.20 402.65 133.24 407.34 C 127.58 410.94 125.90 418.73 119.45 421.42 C 113.27 423.83 106.55 424.44 100.00 425.20 C 92.27 425.82 84.67 423.93 77.05 422.94 C 68.52 421.74 59.67 420.49 52.25 415.77 C 45.20 411.29 37.80 407.09 32.02 400.96 C 27.16 396.07 21.55 391.95 15.55 388.58 C 10.61 385.90 4.42 381.79 5.37 375.31 C 7.01 367.76 13.81 362.96 17.41 356.40 C 20.91 349.95 26.83 344.54 27.82 336.96 C 29.87 324.41 29.63 311.64 29.61 298.97 C 29.77 290.59 27.30 282.24 28.82 273.88 C 30.00 266.59 34.56 260.57 38.51 254.56 C 41.38 250.54 44.51 245.99 49.60 244.73 C 59.71 241.96 70.27 243.37 80.59 243.50 C 88.93 243.48 97.39 243.56 105.55 241.62 C 113.76 239.75 122.03 238.14 130.12 235.81 C 136.03 234.16 139.96 229.00 145.50 226.68 Z" />
<path fill="#9b9b9b" d=" M 276.74 254.80 C 281.17 252.27 285.67 249.85 290.05 247.22 C 294.01 251.24 297.84 255.42 301.27 259.92 C 297.11 263.04 292.34 266.12 290.39 271.19 C 288.80 276.51 290.97 282.45 288.50 287.57 C 287.31 289.71 284.64 289.51 282.87 288.27 C 277.92 285.20 274.56 280.16 271.66 275.23 C 267.62 268.62 269.70 258.49 276.74 254.80 Z" />
<path fill="#9b9b9b" d=" M 321.91 413.60 C 326.69 413.04 331.08 410.93 335.39 408.91 C 337.73 412.30 340.63 415.76 340.79 420.07 C 340.72 424.91 338.69 429.43 336.79 433.79 C 333.92 440.04 331.33 446.42 328.87 452.85 C 325.02 462.62 322.12 473.05 315.36 481.33 C 312.32 484.98 309.13 490.58 303.56 489.66 C 294.41 488.58 285.43 485.89 277.15 481.82 C 269.48 478.04 261.53 474.75 254.47 469.87 C 257.06 459.99 261.83 450.86 267.36 442.35 C 271.79 435.46 279.03 431.30 285.33 426.37 C 290.39 422.76 295.07 418.39 300.90 416.04 C 307.69 413.91 314.93 414.62 321.91 413.60 Z" />
<path fill="#9b9b9b" d=" M 149.38 443.29 C 166.72 440.40 183.49 447.04 200.14 450.80 C 203.88 451.70 208.44 453.21 209.54 457.41 C 211.35 464.90 211.04 473.30 207.20 480.14 C 204.76 484.75 201.76 489.09 199.93 494.01 C 197.08 501.18 196.39 508.95 194.46 516.38 C 192.23 525.59 194.70 535.40 191.36 544.41 C 188.68 551.38 182.47 557.57 174.65 557.93 C 162.38 558.94 149.96 558.84 137.72 557.38 C 128.41 556.58 118.92 558.59 109.73 556.29 C 104.07 554.86 97.92 553.67 93.48 549.57 C 90.48 546.95 90.47 542.59 90.62 538.94 C 90.72 534.07 93.46 529.91 95.81 525.85 C 99.59 519.47 101.33 512.17 104.65 505.57 C 106.47 501.93 108.35 498.20 108.65 494.07 C 109.65 486.45 108.55 477.90 113.30 471.32 C 117.69 465.45 122.31 459.65 128.01 454.99 C 134.23 449.73 141.06 444.42 149.38 443.29 Z" />
<path fill="#9b9b9b" d=" M 257.34 528.26 C 266.50 526.19 275.65 529.45 284.58 531.22 C 291.53 532.69 299.17 532.63 305.30 536.67 C 307.09 537.72 307.23 539.97 306.84 541.80 C 304.68 551.74 294.25 557.33 292.42 567.39 C 291.52 571.43 290.76 575.51 289.57 579.48 C 287.81 586.11 284.62 592.25 282.94 598.90 C 281.48 604.64 279.84 610.32 277.91 615.92 C 276.99 619.11 275.74 622.60 276.87 625.90 C 279.01 629.65 283.93 631.20 285.45 635.34 C 285.61 642.66 282.71 649.83 279.05 656.07 C 275.79 661.63 269.64 664.80 263.43 665.77 C 258.88 666.70 254.23 666.17 249.65 665.83 C 240.50 665.11 231.28 665.18 222.20 663.71 C 216.78 662.78 211.24 660.77 207.53 656.53 C 197.67 644.72 194.86 628.94 194.12 614.00 C 193.73 601.25 201.59 590.55 206.43 579.34 C 209.39 572.72 207.96 564.59 212.70 558.70 C 215.75 554.48 221.31 554.14 225.89 552.72 C 234.92 549.96 242.62 543.65 247.98 535.97 C 250.33 532.64 253.16 529.20 257.34 528.26 Z" />
<path fill="#9b9b9b" d=" M 376.57 570.47 C 378.80 569.38 381.80 569.30 383.43 571.48 C 386.97 575.83 388.98 581.19 392.26 585.74 C 396.92 592.23 399.05 600.04 403.04 606.90 C 407.17 614.04 410.87 621.49 416.06 627.96 C 419.21 632.22 423.00 637.14 421.99 642.78 C 419.87 649.98 412.34 654.43 411.39 662.14 C 409.86 673.38 408.60 684.74 405.65 695.72 C 404.33 701.20 397.34 704.05 397.99 710.14 C 397.73 713.29 399.61 718.05 395.69 719.54 C 390.37 722.11 384.43 723.78 378.48 723.34 C 366.26 722.27 353.89 719.84 341.64 721.76 C 329.85 724.63 318.26 729.25 305.97 729.32 C 300.05 729.47 296.20 724.25 293.23 719.85 C 290.83 715.96 287.95 712.16 286.87 707.65 C 286.63 704.54 288.85 701.93 290.47 699.49 C 300.99 686.10 313.65 674.56 324.28 661.26 C 327.52 657.32 329.44 652.52 330.70 647.63 C 333.26 638.00 336.70 628.49 342.08 620.06 C 346.96 612.44 354.13 606.51 358.47 598.52 C 361.83 592.39 362.24 585.03 366.17 579.18 C 368.74 575.40 372.34 572.26 376.57 570.47 Z" />
<path fill="#9b9b9b" d=" M 95.39 576.52 C 107.83 575.20 120.23 577.66 132.59 578.72 C 141.27 580.11 150.12 579.35 158.82 580.52 C 166.35 581.72 173.29 586.07 178.07 591.97 C 183.44 598.74 184.05 608.09 182.18 616.25 C 180.31 624.01 178.10 631.91 173.50 638.55 C 169.94 643.56 164.08 645.98 158.95 649.01 C 154.94 651.21 151.35 654.05 147.54 656.57 C 143.57 659.20 138.62 659.46 134.00 659.62 C 127.38 659.73 120.41 659.75 114.37 656.65 C 109.77 654.28 105.28 651.71 100.62 649.47 C 96.15 647.12 91.22 645.02 88.21 640.78 C 84.25 635.31 82.89 628.54 80.65 622.29 C 77.49 613.48 79.12 604.07 79.27 594.96 C 79.54 590.31 78.95 584.98 82.06 581.10 C 85.53 577.61 90.79 577.24 95.39 576.52 Z" />
<path fill="#9b9b9b" d=" M 587.18 810.00 C 591.62 807.76 594.97 803.98 598.43 800.51 C 602.26 803.61 607.17 806.87 607.49 812.30 C 607.60 820.35 603.94 828.71 596.78 832.84 C 592.17 835.43 591.12 840.82 588.64 845.05 C 583.69 844.01 579.20 841.48 574.88 838.95 C 571.59 837.03 569.61 833.11 570.33 829.33 C 571.08 825.04 572.84 820.89 575.47 817.42 C 578.40 813.65 583.12 812.17 587.18 810.00 Z" />
<path fill="#9b9b9b" d=" M 478.56 838.38 C 481.95 837.74 485.16 839.58 488.29 840.63 C 492.12 842.29 496.34 843.08 499.92 845.28 C 501.82 847.74 500.32 851.09 499.78 853.80 C 498.07 859.02 497.35 864.46 496.60 869.88 C 496.04 874.74 491.45 877.41 487.61 879.59 C 482.86 881.99 478.03 884.66 472.70 885.41 C 467.55 885.13 463.63 880.58 458.40 880.57 C 453.18 880.66 448.07 881.94 442.90 882.58 C 445.33 874.52 448.06 866.17 453.84 859.83 C 458.49 854.64 466.04 853.08 470.13 847.29 C 472.69 844.15 474.53 839.89 478.56 838.38 Z" />
<path fill="#9b9b9b" d=" M 440.87 884.80 C 444.01 883.61 448.28 882.05 451.03 884.89 C 453.42 887.78 453.96 891.66 454.99 895.16 C 457.40 905.16 461.10 914.81 463.29 924.87 C 464.19 928.54 463.29 932.27 462.32 935.83 C 457.68 933.65 453.17 931.10 449.32 927.69 C 446.36 925.38 443.64 922.24 439.77 921.58 C 431.85 920.79 423.66 923.59 415.91 921.05 C 411.99 912.94 414.33 902.11 421.59 896.62 C 427.54 891.99 433.92 887.78 440.87 884.80 Z" />
<path fill="#9b9b9b" d=" M 500.35 915.51 C 504.91 915.04 508.78 918.19 512.13 920.89 C 516.40 924.66 521.16 927.81 526.14 930.57 C 524.63 936.53 523.03 942.97 518.23 947.20 C 510.35 954.34 500.90 959.38 491.88 964.90 C 486.37 968.25 481.54 972.55 476.38 976.39 C 472.41 979.39 467.51 980.58 462.74 981.60 C 461.98 977.29 460.51 972.62 462.43 968.41 C 465.43 961.24 471.57 956.15 475.83 949.82 C 479.39 944.45 476.36 937.56 478.88 931.89 C 481.50 928.45 485.63 926.66 488.80 923.80 C 492.51 920.89 495.55 916.62 500.35 915.51 Z" />
<path fill="#9b9b9b" d=" M 530.18 962.22 C 534.63 958.85 540.24 956.75 545.87 957.23 C 550.70 957.92 553.76 962.46 555.34 966.71 C 557.79 973.77 558.10 981.50 556.88 988.85 C 556.12 993.78 553.49 998.10 551.05 1002.36 C 535.11 1000.15 519.00 1000.35 502.95 999.97 C 497.89 999.57 492.40 999.75 487.91 997.06 C 484.68 994.87 482.93 990.75 483.63 986.91 C 484.95 978.64 491.25 971.59 499.15 968.97 C 506.15 966.18 513.79 967.39 521.11 966.81 C 524.68 966.66 527.43 964.18 530.18 962.22 Z" />
</svg>
