<?xml version="1.0" encoding="UTF-8" ?>
<!DOCTYPE svg PUBLIC "-//W3C//DTD SVG 1.1//EN" "http://www.w3.org/Graphics/SVG/1.1/DTD/svg11.dtd">
<svg width="38pt" height="38pt" viewBox="0 0 38 38" version="1.1" xmlns="http://www.w3.org/2000/svg">
<path fill="#ffffff" d=" M 0.00 0.00 L 38.00 0.00 L 38.00 38.00 L 0.00 38.00 L 0.00 0.00 Z" />
<path fill="#00a4d7" d=" M 4.30 1.50 C 6.71 0.47 9.42 0.63 11.99 0.56 C 17.67 0.76 23.36 0.61 29.05 0.60 C 31.96 0.55 35.34 1.48 36.75 4.27 C 37.76 7.41 37.20 10.77 37.26 14.00 C 37.34 19.98 37.43 25.96 37.22 31.94 C 37.12 35.09 33.92 37.29 30.94 37.23 C 23.63 37.39 16.31 37.11 9.00 37.32 C 6.74 37.32 4.19 37.20 2.53 35.45 C 0.43 33.60 0.60 30.56 0.61 28.01 C 0.77 21.33 0.57 14.65 0.57 7.97 C 0.39 5.30 1.80 2.59 4.30 1.50 Z" />
<path fill="#ffffff" d=" M 3.27 12.95 C 6.17 9.05 10.99 6.45 15.93 7.52 C 19.80 7.53 22.73 11.41 26.63 10.58 C 28.68 9.15 31.08 6.31 33.68 8.52 C 36.44 10.73 32.76 13.79 30.65 14.78 C 25.70 18.05 20.23 14.59 15.56 12.60 C 12.11 10.99 10.13 15.40 6.98 15.61 C 5.13 15.95 4.02 14.35 3.27 12.95 Z" />
<path fill="#ffffff" d=" M 8.22 16.21 C 13.46 13.67 19.22 15.98 24.06 18.33 C 26.59 19.46 28.07 16.67 29.89 15.55 C 31.96 15.08 35.20 16.32 34.42 18.95 C 32.52 21.69 29.46 24.09 25.94 23.77 C 21.59 24.02 18.15 20.78 14.02 20.09 C 10.78 19.69 9.30 24.26 5.98 23.40 C 4.47 23.07 3.02 21.71 3.65 20.04 C 4.96 18.54 6.52 17.25 8.22 16.21 Z" />
<path fill="#ffffff" d=" M 10.12 23.25 C 14.94 21.40 19.61 24.32 23.96 26.07 C 26.84 27.46 28.30 23.27 31.03 23.38 C 32.68 23.25 34.43 24.16 34.51 25.98 C 32.86 29.43 29.03 32.02 25.12 31.54 C 21.41 31.49 18.39 29.12 15.01 27.95 C 11.77 26.57 9.91 30.64 7.04 31.38 C 5.33 31.16 2.87 30.25 3.42 28.03 C 4.90 25.65 7.59 24.28 10.12 23.25 Z" />
</svg>
